<?xml version="1.0" standalone="no"?>
<!DOCTYPE svg PUBLIC "-//W3C//DTD SVG 20010904//EN"
 "http://www.w3.org/TR/2001/REC-SVG-20010904/DTD/svg10.dtd">
<svg version="1.0" xmlns="http://www.w3.org/2000/svg"
 width="946.000000pt" height="970.000000pt" viewBox="0 0 946.000000 970.000000"
 preserveAspectRatio="xMidYMid meet">

<g transform="translate(0.000000,970.000000) scale(0.100000,-0.100000)"
fill="#000000" stroke="none">
<path d="M7615 9079 c-174 -23 -400 -100 -550 -187 -245 -143 -400 -334 -485
-599 -38 -119 -46 -156 -59 -276 -20 -175 -9 -171 -406 -168 -526 3 -818 -33
-1175 -147 -225 -72 -474 -188 -673 -312 -54 -34 -101 -60 -104 -57 -3 3 1 39
8 79 68 397 -142 824 -532 1084 -37 24 -76 44 -88 44 -48 0 -229 -300 -291
-486 -48 -140 -64 -242 -63 -399 0 -119 4 -155 26 -239 46 -171 178 -406 228
-406 29 0 51 61 57 160 4 81 3 90 -32 173 -52 125 -66 194 -66 327 0 171 41
318 142 512 47 92 44 92 142 -12 127 -135 187 -230 242 -385 26 -73 28 -91 28
-215 -1 -117 -4 -147 -28 -225 -28 -94 -63 -166 -82 -172 -8 -3 -14 24 -19 79
-12 137 -34 247 -75 369 -44 132 -98 246 -110 233 -4 -5 -4 -88 1 -184 19
-413 9 -600 -42 -755 -25 -75 -50 -120 -148 -265 -155 -230 -197 -301 -296
-499 -102 -205 -145 -319 -195 -517 -57 -225 -78 -336 -91 -473 -7 -67 -16
-120 -19 -119 -4 2 -43 50 -86 108 -128 171 -292 287 -524 373 -185 69 -394
90 -618 63 -132 -16 -266 -45 -329 -71 -42 -18 -43 -42 -4 -191 152 -577 524
-956 1019 -1038 162 -27 189 -28 206 -11 23 23 20 36 -16 91 -50 73 -95 103
-195 131 -262 73 -493 242 -620 453 -89 148 -173 340 -173 394 0 20 19 24 166
35 254 20 472 -25 664 -136 40 -23 108 -81 175 -148 119 -118 158 -178 210
-326 41 -117 33 -125 -49 -50 -85 76 -216 164 -345 230 -156 79 -431 172 -431
144 0 -9 134 -115 275 -218 168 -123 192 -143 308 -255 174 -167 245 -268 307
-437 41 -113 51 -183 59 -393 l6 -185 26 45 c15 25 69 119 120 210 l94 165 6
535 c6 568 7 576 64 852 86 418 292 845 580 1198 79 97 307 316 415 399 311
240 657 411 1004 497 280 69 347 76 796 81 418 5 464 2 509 -35 18 -14 25 -40
41 -147 70 -478 297 -773 735 -951 132 -54 297 -91 492 -109 95 -9 108 3 118
111 12 126 -1 397 -24 494 -18 80 -48 180 -66 224 -8 18 -5 19 36 12 222 -33
328 -29 495 20 263 75 462 195 676 404 81 78 97 99 92 117 -8 28 -124 139
-233 223 -179 135 -339 219 -526 276 -80 24 -107 27 -245 28 -85 1 -186 -3
-224 -7 -69 -9 -69 -9 -63 15 2 12 22 86 42 163 37 138 38 144 42 355 2 118 0
235 -4 260 l-9 45 -84 1 c-47 1 -116 -2 -155 -7z m45 -297 c0 -226 -84 -488
-204 -638 -61 -76 -171 -168 -256 -213 -98 -52 -290 -108 -290 -85 0 4 31 41
68 83 150 167 253 314 332 471 67 134 52 134 -90 -2 -296 -284 -461 -425 -480
-413 -25 16 38 254 102 385 45 90 64 117 137 191 145 144 326 238 548 283 65
13 121 22 126 19 4 -2 7 -39 7 -81z m574 -757 c124 -31 231 -77 342 -148 100
-63 194 -142 194 -162 0 -51 -317 -245 -490 -300 -125 -40 -300 -46 -425 -15
-107 27 -192 63 -271 118 -77 52 -113 90 -96 101 7 4 75 11 151 14 278 13 643
55 664 76 11 11 -2 15 -108 35 -133 26 -304 45 -515 58 -145 9 -200 15 -200
24 0 32 144 126 255 166 176 65 333 76 499 33z m-1216 -445 c156 -43 324 -152
428 -279 131 -157 214 -417 214 -667 l0 -57 -57 6 c-133 13 -345 92 -468 175
-147 99 -231 198 -310 363 -55 118 -113 339 -88 339 28 0 312 -248 485 -422
157 -159 170 -158 86 4 -92 179 -192 320 -330 464 -43 45 -78 84 -78 88 0 11
45 6 118 -14z"/>
<path d="M4595 7056 c-219 -128 -433 -303 -491 -401 -57 -99 -117 -317 -139
-510 -19 -163 -22 -1375 -4 -1375 6 0 60 25 120 56 79 40 110 62 114 77 3 12
6 288 8 612 3 570 4 594 26 699 70 336 205 600 424 829 41 42 69 77 63 77 -6
0 -60 -29 -121 -64z"/>
<path d="M5800 5769 c-193 -41 -378 -131 -496 -242 -171 -160 -271 -358 -308
-612 l-12 -79 -159 -18 c-415 -46 -792 -197 -1105 -441 -88 -69 -247 -224
-335 -327 -271 -318 -448 -724 -509 -1168 -14 -96 -16 -267 -16 -1166 0 -967
1 -1055 17 -1067 10 -9 49 -15 105 -18 163 -6 378 44 540 125 315 159 525 411
623 749 55 192 55 186 55 1465 0 649 -4 1180 -8 1180 -15 0 -135 -80 -189
-127 l-53 -45 0 -1087 c0 -913 -2 -1102 -15 -1173 -60 -345 -260 -620 -549
-753 -73 -34 -215 -75 -259 -75 l-25 0 0 807 c0 445 4 882 9 973 12 194 52
411 107 575 40 120 166 377 233 477 124 184 301 367 489 505 72 52 265 161
356 201 184 81 412 139 576 149 l107 6 4 -24 c60 -316 143 -487 316 -651 97
-92 177 -143 295 -189 121 -46 221 -69 337 -76 105 -6 107 -5 119 17 16 30 7
235 -14 331 -43 198 -138 371 -275 507 -51 51 -91 95 -88 98 3 3 95 5 204 5
l198 -2 35 -33 c117 -110 250 -192 397 -243 73 -26 89 -28 243 -27 153 0 171
2 250 28 173 57 353 166 473 287 97 98 98 109 20 191 -128 134 -343 265 -509
309 -117 32 -327 32 -444 0 -147 -39 -283 -117 -402 -228 l-67 -63 -213 0
-213 0 92 88 c172 164 231 262 288 479 27 103 42 294 28 358 l-9 40 -74 2
c-45 1 -114 -6 -170 -18z m36 -261 c-30 -224 -192 -447 -405 -556 -91 -47
-201 -86 -212 -75 -12 13 10 120 41 202 73 189 194 325 370 416 51 27 161 65
189 65 23 0 23 -2 17 -52z m1141 -616 c122 -45 273 -146 273 -182 0 -35 -239
-168 -351 -195 -145 -34 -320 -9 -453 64 -83 45 -93 61 -39 61 41 0 485 58
491 65 16 16 -178 53 -400 76 -75 8 -118 16 -118 24 0 21 162 98 244 115 23 5
93 8 156 6 99 -3 126 -7 197 -34z m-1642 -373 c200 -79 338 -205 433 -394 31
-63 72 -195 72 -234 0 -21 -3 -23 -37 -16 -72 13 -191 66 -259 114 -177 125
-304 325 -330 519 l-7 53 29 -7 c16 -4 61 -19 99 -35z"/>
</g>
</svg>
